<svg xmlns="http://www.w3.org/2000/svg" width="50" height="50" fill="none" viewBox="0 0 50 50"><path fill="#fff" d="M25 0C20.0555 0 15.222 1.46622 11.1108 4.21326C6.99953 6.96029 3.79521 10.8648 1.90302 15.4329C0.010832 20.0011 -0.484251 25.0277 0.480379 29.8773C1.44501 34.7268 3.82603 39.1813 7.32234 42.6777C10.8187 46.174 15.2732 48.555 20.1227 49.5196C24.9723 50.4842 29.9989 49.9892 34.5671 48.097C39.1352 46.2048 43.0397 43.0005 45.7867 38.8892C48.5338 34.778 50 29.9445 50 25C49.993 18.3717 47.3569 12.0169 42.67 7.33002C37.9831 2.64312 31.6283 0.00696614 25 0ZM25 47.3684C20.576 47.3684 16.2512 46.0565 12.5728 43.5986C8.89431 41.1408 6.0273 37.6473 4.33428 33.56C2.64127 29.4727 2.1983 24.9752 3.06139 20.6361C3.92448 16.2971 6.05487 12.3114 9.18315 9.18314C12.3114 6.05486 16.2971 3.92447 20.6361 3.06138C24.9752 2.19829 29.4727 2.64126 33.56 4.33427C37.6473 6.02729 41.1408 8.8943 43.5987 12.5728C46.0565 16.2512 47.3684 20.5759 47.3684 25C47.3615 30.9303 45.0026 36.6158 40.8092 40.8092C36.6158 45.0025 30.9303 47.3614 25 47.3684Z"/><path fill="#fff" d="M36.4626 13.5067C36.3036 13.3462 36.1144 13.2187 35.9059 13.1317C35.6974 13.0448 35.4738 13 35.2479 13C35.0221 13 34.7985 13.0448 34.59 13.1317C34.3815 13.2187 34.1923 13.3462 34.0332 13.5067L25 22.5518L15.9325 13.5067C15.6104 13.1841 15.1734 13.0029 14.7178 13.0029C14.2622 13.0029 13.8253 13.1841 13.5031 13.5067C13.181 13.8293 13 14.2668 13 14.723C13 15.1792 13.181 15.6167 13.5031 15.9393L22.5706 24.9843L13.5374 34.0636C13.2152 34.3862 13.0342 34.8237 13.0342 35.2799C13.0342 35.7361 13.2152 36.1736 13.5374 36.4962C13.8595 36.8188 14.2965 37 14.7521 37C15.2077 37 15.6446 36.8188 15.9668 36.4962L25 27.4169L34.0675 36.4962C34.3896 36.8188 34.8266 37 35.2822 37C35.7378 37 36.1747 36.8188 36.4969 36.4962C36.819 36.1736 37 35.7361 37 35.2799C37 34.8237 36.819 34.3862 36.4969 34.0636L27.4294 24.9843L36.4969 15.905C36.8058 15.5803 36.9753 15.1473 36.9689 14.6989C36.9625 14.2505 36.7807 13.8224 36.4626 13.5067Z"/></svg>