<svg xmlns="http://www.w3.org/2000/svg" width="128" height="105" fill="none" viewBox="0 0 128 105"><path fill="#000" d="M102.22 36.8417L102.257 36.8382L101.891 35.8104C94.9806 14.7751 75.3382 0 52.332 0C50.5862 0 48.816 0.0882463 47.0684 0.263007C18.3921 3.13012 -2.60515 28.7957 0.261966 57.4721C0.495557 59.8063 0.886598 62.0868 1.40742 64.3137L1.37801 64.3172L1.53374 64.8795C7.20222 87.9445 27.8205 104.543 52.2092 104.543C53.955 104.543 55.7251 104.455 57.4728 104.28C86.1491 101.411 107.146 75.7476 104.279 47.0695C103.928 43.5327 103.222 40.1171 102.22 36.8417ZM97.467 33.8378L59.916 37.5943L59.6391 37.6445C59.2723 37.7431 58.902 37.84 58.5144 37.8781C58.2739 37.9023 58.0386 37.9144 57.8015 37.9144C54.161 37.9144 51.1433 35.1788 50.7799 31.5521C50.3924 27.6762 53.2318 24.207 57.1059 23.8194C57.2582 23.8038 57.4105 23.7986 57.561 23.7986C57.7946 23.7986 58.0282 23.8107 58.2583 23.8263L58.3985 23.835L89.5024 20.7239C92.8592 24.6776 95.5308 29.076 97.467 33.8378ZM5.85604 67.3469L39.6939 63.9625L39.9707 63.9123C40.3358 63.8136 40.7251 63.715 41.0954 63.6787C45.0215 63.2807 48.4406 66.1426 48.8282 70.0047C49.015 71.8821 48.4613 73.7196 47.2674 75.1817C46.0735 76.6439 44.3795 77.5505 42.5004 77.7374C42.1128 77.7772 41.7287 77.7564 41.3515 77.7322L41.2114 77.7236L12.5194 80.5924C9.62465 76.5366 7.38909 72.0932 5.85604 67.3469ZM57.1302 100.835C55.4985 100.998 53.8426 101.083 52.2109 101.083C37.313 101.083 23.9204 94.447 14.9592 83.8264L41.2771 81.1946C41.7945 81.224 42.317 81.2361 42.8465 81.1824C45.6444 80.9021 48.1655 79.5508 49.9459 77.3741C51.7264 75.1991 52.5518 72.46 52.2732 69.6621C51.6987 63.9105 46.6186 59.6505 40.7546 60.2371C40.1818 60.2942 39.6627 60.4171 39.2111 60.5364L4.87669 63.9694C4.33683 61.7494 3.94059 59.4671 3.707 57.1295C1.02849 30.3513 20.6346 6.38482 47.4145 3.70631C49.0462 3.54366 50.7021 3.45888 52.3338 3.45888C65.6831 3.45888 77.8194 8.78475 86.6474 17.5314L58.3344 20.364C57.8154 20.3311 57.2945 20.3242 56.7651 20.3761C50.9893 20.954 46.7605 26.1224 47.3384 31.8982C47.8782 37.3019 52.377 41.3768 57.8032 41.3768C58.1528 41.3768 58.5057 41.3595 58.8622 41.3249C59.4124 41.2695 59.9246 41.1501 60.4022 41.0255L98.7025 37.1946C99.751 40.4563 100.485 43.8702 100.839 47.4155C103.514 74.192 83.9084 98.1585 57.1302 100.835Z"/><path fill="#000" d="M118.888 7.68848C113.865 7.68848 109.776 11.7755 109.776 16.8003C109.776 21.8251 113.863 25.912 118.888 25.912C123.913 25.912 128 21.8251 128 16.8003C128 11.7755 123.911 7.68848 118.888 7.68848ZM118.888 22.4514C115.772 22.4514 113.237 19.9165 113.237 16.8003C113.237 13.684 115.772 11.1491 118.888 11.1491C122.004 11.1491 124.539 13.684 124.539 16.8003C124.539 19.9165 122.004 22.4514 118.888 22.4514Z"/></svg>