<svg xmlns="http://www.w3.org/2000/svg" width="128" height="106" fill="none" viewBox="0 0 128 106"><path fill="#000" d="M88.44 9.92771L88.4507 9.92301L88.0091 9.62279C79.2126 3.41445 68.6442 0 57.6067 0C45.3348 0 33.3705 4.32854 23.9186 12.1888C13.5003 20.8539 6.94351 32.9282 5.31235 46.3213C5.30966 46.3407 5.30765 46.3601 5.30497 46.3796C5.24399 46.8869 5.17496 47.3928 5.12738 47.9035C5.10192 48.1823 5.09186 48.4597 5.07109 48.7378C5.07109 48.7425 5.06975 48.7472 5.06975 48.7519L4.96051 50.1961L4.97392 50.1901C4.48336 60.1553 6.78937 69.8746 11.6004 78.4439L11.5984 78.4446L11.7767 78.7501C13.3093 81.4375 15.0759 84.0162 17.0957 86.4442C27.1447 98.5272 41.9311 105.457 57.6623 105.457C69.9349 105.457 81.8986 101.129 91.3511 93.2678C102.179 84.2622 108.852 71.5788 110.141 57.5538C111.43 43.5287 107.18 29.8408 98.1747 19.0124C95.2896 15.5456 92.0146 12.5051 88.44 9.92771ZM15.935 82.172C15.2468 81.1982 14.5826 80.1917 13.9574 79.1603L105.513 34.9976C105.954 36.1898 106.352 37.4028 106.701 38.6205L16.0576 82.3429C16.0161 82.2859 15.9759 82.2289 15.935 82.172ZM13.1083 77.7168C11.9295 75.6266 10.9075 73.466 10.0416 71.2484L101.742 27.0147C102.956 29.0855 104.018 31.2273 104.92 33.4294L13.1083 77.7168ZM76.8449 26.5925C76.229 26.5925 75.7278 26.0912 75.7278 25.4753C75.7278 24.8595 76.229 24.3582 76.8449 24.3582C77.4608 24.3582 77.9614 24.8595 77.9614 25.4753C77.9614 26.0912 77.4608 26.5925 76.8449 26.5925ZM7.2357 44.6345L82.6853 8.24025C83.4982 8.69797 84.3051 9.18182 85.0972 9.68779L6.86644 47.423C6.96428 46.4942 7.08692 45.5613 7.2357 44.6345ZM12.5098 38.5441C12.5098 38.2365 12.7605 37.9858 13.0681 37.9858C13.3757 37.9858 13.6263 38.2365 13.6263 38.5441C13.6263 38.8517 13.3757 39.1023 13.0681 39.1023C12.7605 39.1023 12.5098 38.8517 12.5098 38.5441ZM24.9861 13.4722C34.1378 5.86119 45.7235 1.66936 57.606 1.66936C65.8222 1.66936 73.7702 3.62421 80.8779 7.25847L14.8748 39.0956C14.9291 38.92 14.9666 38.7371 14.9666 38.5441C14.9666 37.4973 14.1149 36.6455 13.0681 36.6455C12.0213 36.6455 11.1695 37.4973 11.1695 38.5441C11.1695 39.3429 11.6674 40.0258 12.3684 40.3053L7.59155 42.6093C9.8741 31.2112 15.9229 21.0101 24.9861 13.4722ZM86.721 10.7574C89.4331 12.6398 91.973 14.7951 94.3025 17.2036L79.1114 24.5311C78.7401 23.6438 77.8642 23.0186 76.8442 23.0186C75.4892 23.0186 74.3868 24.121 74.3868 25.476C74.3868 25.9063 74.5081 26.305 74.7031 26.6575L6.9998 59.3149C6.58095 56.0439 6.47842 52.7132 6.70292 49.3557L86.721 10.7574ZM18.3791 85.3767C17.9247 84.8305 17.4911 84.2729 17.0615 83.712L107.165 40.2496C107.722 42.4672 108.129 44.7256 108.38 47.0122L58.9551 70.853C58.2414 70.6915 57.5015 70.599 56.7395 70.599C52.7635 70.599 49.3303 72.9245 47.7005 76.2813L21.5824 88.8796C20.4686 87.7678 19.397 86.601 18.3791 85.3767ZM48.0282 80.6521C48.0282 75.8484 51.9365 71.94 56.7402 71.94C61.5439 71.94 65.4522 75.8484 65.4522 80.6521C65.4522 85.4557 61.5439 89.3641 56.7402 89.3641C51.9365 89.3641 48.0282 85.4557 48.0282 80.6521ZM90.2822 91.9844C81.1306 99.5961 69.5456 103.788 57.6617 103.788C46.7079 103.788 36.2294 100.318 27.5877 94.0204L47.4364 84.4458C48.9376 88.1122 52.539 90.7044 56.7402 90.7044C62.2831 90.7044 66.7926 86.1949 66.7926 80.6521C66.7926 78.8654 66.3188 77.1894 65.4978 75.7338L108.645 54.9214C108.608 55.7463 108.553 56.5726 108.478 57.401C107.23 70.9824 100.768 83.2637 90.2822 91.9844Z"/><path fill="#000" d="M91.2533 81.5454C90.0832 81.5454 89.1309 82.497 89.1309 83.6678C89.1309 84.8386 90.0832 85.7902 91.2533 85.7902C92.4233 85.7902 93.375 84.8386 93.375 83.6678C93.375 82.497 92.4233 81.5454 91.2533 81.5454Z"/><path fill="#000" d="M3.01571 84.6733C1.35305 84.6733 0 86.0264 0 87.689C0 89.3517 1.35305 90.7048 3.01571 90.7048C4.67837 90.7048 6.03141 89.3517 6.03141 87.689C6.03141 86.0264 4.67837 84.6733 3.01571 84.6733ZM3.01571 89.3644C2.09156 89.3644 1.34031 88.6125 1.34031 87.689C1.34031 86.7656 2.09156 86.0137 3.01571 86.0137C3.93985 86.0137 4.6911 86.7656 4.6911 87.689C4.6911 88.6125 3.93985 89.3644 3.01571 89.3644Z"/><path fill="#000" d="M96.9496 7.60466C98.1814 7.60466 99.1833 6.6021 99.1833 5.37102C99.1833 4.13994 98.1814 3.13672 96.9496 3.13672C95.7179 3.13672 94.7153 4.13927 94.7153 5.37035C94.7153 6.60143 95.7179 7.60466 96.9496 7.60466ZM96.9496 4.47703C97.4422 4.47703 97.8429 4.87779 97.8429 5.37035C97.8429 5.86292 97.4422 6.26367 96.9496 6.26367C96.4571 6.26367 96.0556 5.86292 96.0556 5.37035C96.0556 4.87779 96.4571 4.47703 96.9496 4.47703Z"/><path fill="#000" d="M125.878 24.1348C124.707 24.1348 123.756 25.0864 123.756 26.2572C123.756 27.4279 124.707 28.3795 125.878 28.3795C127.048 28.3795 128 27.4279 128 26.2572C128 25.0864 127.048 24.1348 125.878 24.1348ZM125.878 27.0392C125.447 27.0392 125.096 26.6887 125.096 26.2572C125.096 25.8256 125.447 25.4751 125.878 25.4751C126.309 25.4751 126.66 25.8256 126.66 26.2572C126.66 26.6887 126.309 27.0392 125.878 27.0392Z"/></svg>