<svg xmlns="http://www.w3.org/2000/svg" width="128" height="98" fill="none" viewBox="0 0 128 98"><path fill="#000" d="M66.797 0C39.9068 0 18.0286 21.8782 18.0286 48.7684C18.0286 75.6586 39.9068 97.5368 66.797 97.5368C93.6872 97.5368 115.565 75.6586 115.565 48.7684C115.565 21.8782 93.6872 0 66.797 0ZM66.797 94.74C41.4493 94.74 20.8254 74.1176 20.8254 48.7684C20.8254 23.4193 41.4493 2.79684 66.797 2.79684C92.1447 2.79684 112.769 23.4193 112.769 48.7684C112.769 74.1176 92.1447 94.74 66.797 94.74Z"/><path fill="#000" d="M120.636 5.74414C116.576 5.74414 113.272 9.0472 113.272 13.1082C113.272 17.1692 116.575 20.4723 120.636 20.4723C124.697 20.4723 128 17.1692 128 13.1082C128 9.0472 124.696 5.74414 120.636 5.74414ZM120.636 17.6754C118.117 17.6754 116.069 15.6268 116.069 13.1082C116.069 10.5897 118.117 8.54098 120.636 8.54098C123.155 8.54098 125.203 10.5897 125.203 13.1082C125.203 15.6268 123.155 17.6754 120.636 17.6754Z"/><path fill="#000" d="M7.36407 61.6816C3.30446 61.6816 0 64.9847 0 69.0457C0 73.1067 3.30306 76.4098 7.36407 76.4098C11.4251 76.4098 14.7281 73.1067 14.7281 69.0457C14.7281 64.9847 11.4237 61.6816 7.36407 61.6816ZM7.36407 73.6129C4.84552 73.6129 2.79684 71.5643 2.79684 69.0457C2.79684 66.5272 4.84552 64.4785 7.36407 64.4785C9.88262 64.4785 11.9313 66.5272 11.9313 69.0457C11.9313 71.5643 9.88262 73.6129 7.36407 73.6129Z"/><path fill="#000" d="M48.8398 14.8516C47.2372 14.8516 45.3382 15.5172 43.6279 16.6779C42.1707 17.6666 40.9933 18.9168 40.3094 20.1977C39.4746 21.7625 39.434 23.2421 40.1948 24.3608C40.838 25.3089 41.9722 25.8319 43.3902 25.8319C44.9927 25.8319 46.8918 25.1663 48.6021 24.007C51.9778 21.7164 53.4546 18.4133 52.0366 16.3241C51.3905 15.3732 50.2564 14.8516 48.8398 14.8516ZM47.0302 21.6912C45.7912 22.5317 44.4306 23.0337 43.3888 23.0337C42.8616 23.0337 42.5847 22.9022 42.5078 22.789C42.3959 22.6254 42.4336 22.1569 42.7763 21.5136C43.2419 20.6382 44.1243 19.7195 45.1969 18.9923C46.4359 18.1504 47.798 17.6484 48.8384 17.6484C49.3656 17.6484 49.6439 17.7812 49.7194 17.8931C49.9865 18.2847 49.374 20.1012 47.0302 21.6912Z"/><path fill="#000" d="M77.5216 80.7305C76.5007 80.7305 75.4449 80.8479 74.3863 81.0787C72.2328 81.5485 70.2862 82.4477 68.9059 83.6112C67.2782 84.9803 66.5678 86.5884 66.9062 88.1393C67.397 90.3879 69.9282 91.785 73.5123 91.785C74.5346 91.785 75.589 91.6675 76.6462 91.4367C81.5546 90.367 84.7724 87.3324 84.1291 84.3789C83.6369 82.1289 81.1057 80.7305 77.5216 80.7305ZM76.0504 88.7042C75.1876 88.893 74.3332 88.9881 73.5123 88.9881C71.2021 88.9881 69.7925 88.2428 69.6387 87.5422C69.5366 87.0765 69.9463 86.3899 70.7057 85.7508C71.7307 84.888 73.29 84.1804 74.9834 83.8112C75.8463 83.6224 76.7007 83.5273 77.5216 83.5273C79.8318 83.5273 81.2428 84.2727 81.3952 84.9747C81.6134 85.9731 79.6388 87.9225 76.0504 88.7042Z"/><path fill="#000" d="M92.9893 17.1465C90.6554 17.1465 88.9004 18.0247 88.1746 19.556C87.4824 21.0145 87.818 22.7751 89.1185 24.5106C90.2275 25.9901 91.9615 27.3368 93.999 28.3045C95.8897 29.2022 97.895 29.6959 99.65 29.6959C101.981 29.6959 103.736 28.8177 104.463 27.2864C105.785 24.5022 103.28 20.739 98.6362 18.5337C96.7497 17.6401 94.743 17.1465 92.9893 17.1465ZM101.938 26.0894C101.7 26.59 100.823 26.9018 99.65 26.9018C98.3019 26.9018 96.7217 26.5033 95.1988 25.7803C93.5865 25.0154 92.1852 23.9414 91.356 22.8352C90.7351 22.0074 90.4834 21.2117 90.7001 20.7558C90.9365 20.2552 91.8133 19.9447 92.9879 19.9447C94.336 19.9447 95.9162 20.3419 97.4377 21.0635C100.869 22.6912 102.395 25.1273 101.938 26.0894Z"/></svg>