<svg xmlns="http://www.w3.org/2000/svg" width="128" height="128" fill="none" viewBox="0 0 128 128"><path fill="#000" d="M64 0C28.7106 0 0 28.7083 0 64C0 99.2917 28.7106 128 64 128C99.2894 128 128 99.2917 128 64C128 28.7083 99.2894 0 64 0ZM64 117.895C34.2839 117.895 10.1058 93.7188 10.1058 64C10.1058 34.2812 34.2839 10.105 64 10.105C93.7161 10.105 117.894 34.2812 117.894 64C117.894 93.7188 93.7161 117.895 64 117.895Z"/><path fill="#000" d="M96.9699 46.8643C93.3672 46.8643 90.4365 49.7947 90.4365 53.3921C90.4365 56.9895 93.3672 59.925 96.9699 59.925C100.573 59.925 103.503 56.9945 103.503 53.3921C103.503 49.7897 100.573 46.8643 96.9699 46.8643ZM96.9699 56.9693C94.9993 56.9693 93.3975 55.3676 93.3975 53.3921C93.3975 51.4216 94.9993 49.82 96.9699 49.82C98.9405 49.82 100.542 51.4216 100.542 53.3921C100.542 55.3676 98.9405 56.9693 96.9699 56.9693Z"/><path fill="#000" d="M29.7616 82.833C26.3206 82.833 23.5264 85.6321 23.5264 89.0678C23.5264 92.5085 26.3257 95.3026 29.7616 95.3026C33.1976 95.3026 35.9919 92.5035 35.9919 89.0678C35.9919 85.6321 33.1926 82.833 29.7616 82.833ZM29.7616 92.938C27.6243 92.938 25.8861 91.2 25.8861 89.0678C25.8861 86.9356 27.6243 85.1976 29.7616 85.1976C31.894 85.1976 33.6322 86.9306 33.6322 89.0678C33.6322 91.205 31.894 92.938 29.7616 92.938Z"/><path fill="#000" d="M51.7519 22.6768C48.6949 22.6768 46.2039 25.1626 46.2039 28.2244C46.2039 31.2862 48.6899 33.772 51.7519 33.772C54.814 33.772 57.3001 31.2862 57.3001 28.2244C57.3001 25.1626 54.814 22.6768 51.7519 22.6768ZM51.7519 32.7818C49.2406 32.7818 47.1943 30.7355 47.1943 28.2244C47.1943 25.7133 49.2406 23.667 51.7519 23.667C54.2632 23.667 56.3097 25.7133 56.3097 28.2244C56.3097 30.7355 54.2632 32.7818 51.7519 32.7818Z"/></svg>