<svg xmlns="http://www.w3.org/2000/svg" width="121" height="128" fill="none" viewBox="0 0 121 128"><path fill="#000" d="M67.698 21.9023C69.2689 21.9023 70.5424 20.6288 70.5424 19.0578C70.5424 17.4869 69.2689 16.2134 67.698 16.2134C66.127 16.2134 64.8535 17.4869 64.8535 19.0578C64.8535 20.6288 66.127 21.9023 67.698 21.9023Z"/><path fill="#000" d="M16.3554 119.04C17.9264 119.04 19.1999 117.767 19.1999 116.196C19.1999 114.625 17.9264 113.352 16.3554 113.352C14.7845 113.352 13.511 114.625 13.511 116.196C13.511 117.767 14.7845 119.04 16.3554 119.04Z"/><path fill="#000" d="M1.84889 99.4131C2.87001 99.4131 3.69778 98.5853 3.69778 97.5642C3.69778 96.5431 2.87001 95.7153 1.84889 95.7153C0.827777 95.7153 0 96.5431 0 97.5642C0 98.5853 0.827777 99.4131 1.84889 99.4131Z"/><path fill="#000" d="M21.9022 47.2174C21.9022 47.2174 21.1911 46.5063 20.1955 46.0797C19.7688 45.7952 19.1999 45.653 18.631 45.5108C18.4888 45.3685 18.3466 45.2263 18.2044 45.0841C18.0622 44.5152 17.9199 43.9463 17.6355 43.5197C17.2088 42.5241 16.4977 41.813 16.4977 41.813C16.4977 41.813 15.7866 42.5241 15.3599 43.5197C15.0755 43.9463 14.9333 44.5152 14.791 45.0841C14.6488 45.2263 14.5066 45.3685 14.3644 45.5108C13.7955 45.653 13.2266 45.7952 12.7999 46.0797C11.8044 46.5063 11.0933 47.2174 11.0933 47.2174C11.0933 47.2174 11.8044 47.9285 12.7999 48.3552C13.2266 48.6397 13.7955 48.7819 14.3644 48.9241C14.5066 49.0663 14.6488 49.2086 14.791 49.3508C14.9333 49.9197 15.0755 50.4886 15.3599 50.9152C15.7866 51.9108 16.4977 52.6219 16.4977 52.6219C16.4977 52.6219 17.2088 51.9108 17.6355 50.9152C17.9199 50.4886 18.0622 49.9197 18.2044 49.3508C18.3466 49.2086 18.4888 49.0663 18.631 48.9241C19.1999 48.7819 19.7688 48.6397 20.1955 48.3552C21.1911 47.9285 21.9022 47.2174 21.9022 47.2174Z"/><path fill="#000" d="M50.2046 16.2134C50.2046 16.2134 41.8135 15.5022 40.8179 15.0756C40.3913 14.7911 39.8224 14.6489 39.2535 14.5067C39.1113 14.3645 38.9691 14.2222 38.8268 14.08C38.6846 13.5111 38.5424 12.9422 38.2579 12.5156C37.8313 11.3778 37.1202 0 37.1202 0C37.1202 0 36.4091 11.3778 35.9824 12.3733C35.6979 12.8 35.5557 13.3689 35.4135 13.9378C35.2713 14.08 35.1291 14.2222 34.9868 14.3645C34.4179 14.5067 33.849 14.6489 33.4224 14.9333C32.4268 15.36 23.1824 16.0711 23.1824 16.0711C23.1824 16.0711 32.4268 16.7822 33.4224 17.2089C33.849 17.4934 34.4179 17.6356 34.9868 17.7778C35.1291 17.92 35.2713 18.0622 35.4135 18.2045C35.5557 18.7734 35.6979 19.3422 35.9824 19.7689C36.4091 20.7645 37.1202 30.4356 37.1202 30.4356C37.1202 30.4356 37.8313 20.7645 38.2579 19.7689C38.5424 19.3422 38.6846 18.7734 38.8268 18.2045C38.9691 18.0622 39.1113 17.92 39.2535 17.7778C39.8224 17.6356 40.3913 17.4934 40.8179 17.2089C41.8135 16.9245 50.2046 16.2134 50.2046 16.2134Z"/><path fill="#000" d="M74.098 36.124C48.7824 36.124 28.1602 56.7463 28.1602 82.0619C28.1602 107.377 48.6402 128 74.098 128C99.5558 128 120.036 107.377 120.036 82.0619C120.036 56.7463 99.4136 36.124 74.098 36.124ZM74.098 123.733C51.058 123.733 32.4268 104.96 32.4268 82.0619C32.4268 59.0218 51.2002 40.3907 74.098 40.3907C96.9958 40.3907 115.769 59.1641 115.769 82.0619C115.769 105.102 96.9958 123.733 74.098 123.733Z"/><path fill="#000" d="M96.569 54.7558C96.9956 54.0447 96.9956 53.1914 96.569 52.338C96.1423 51.4847 95.289 50.6314 94.2934 50.0625C92.1601 48.7825 89.7423 48.9247 89.0312 50.3469C88.6045 51.058 88.6045 51.9114 89.0312 52.7647C89.1734 53.1914 89.6001 53.618 89.8845 54.0447C90.3112 54.4714 90.7378 54.7558 91.3067 55.1825C92.3023 55.7514 93.4401 56.0358 94.4356 56.0358C95.4312 55.8936 96.2845 55.4669 96.569 54.7558Z"/><path fill="#000" d="M62.2935 60.8713C62.8624 61.4402 63.5735 61.8668 64.4268 61.8668C64.2846 63.7157 65.1379 65.5646 66.5602 66.418C66.9868 66.7024 67.4135 66.8446 67.9824 66.8446C69.4046 67.1291 71.1113 66.5602 72.3913 65.4224C73.5291 65.2802 74.3824 64.7113 75.0935 63.858C75.8046 63.0046 76.2313 62.0091 76.2313 60.8713C76.2313 59.5913 75.6624 58.3113 74.6668 57.458C74.5246 57.0313 74.2402 56.6046 73.9557 56.3202C73.6713 55.8935 73.2446 55.6091 72.9602 55.4668C72.5335 55.1824 71.9646 55.0402 71.3957 54.8979C70.8268 54.8979 70.258 54.898 69.6891 55.0402C68.5513 55.3246 67.4135 56.0357 66.5602 57.0313C66.2757 56.7468 65.9913 56.6046 65.7068 56.4624C65.4224 56.3202 64.9957 56.178 64.5691 56.178C63.4313 56.178 62.4357 56.8891 62.0091 57.8846C61.8668 58.1691 61.7246 58.5957 61.7246 59.0224C61.7246 59.4491 61.8668 59.7335 62.0091 60.1602C62.0091 60.4446 62.1513 60.7291 62.2935 60.8713Z"/><path fill="#000" d="M86.0448 59.0225C85.6181 59.0225 85.1915 59.0225 84.7648 59.1647C83.9115 59.3069 83.2003 59.7336 82.6315 60.3025C82.347 60.5869 82.0626 60.8714 81.9203 61.1558C78.7914 61.4402 76.2314 64.0002 76.2314 67.2714C76.2314 69.8314 77.7959 71.9647 79.9292 72.9603C80.0714 72.9603 80.0714 72.9603 80.2137 73.1025C80.3559 72.3914 81.067 71.8225 81.7781 71.8225C82.6315 71.8225 83.3426 72.5336 83.4848 73.2447C86.0448 72.818 88.0359 70.8269 88.4626 68.2669C90.027 67.4136 91.0226 65.8491 91.0226 64.0002C91.0226 62.578 90.4537 61.4402 89.6004 60.4447C88.6048 59.5914 87.3248 59.0225 86.0448 59.0225Z"/><path fill="#000" d="M102.827 62.1509C102.258 61.4398 101.689 60.8709 100.836 60.4442C100.267 60.1598 99.556 60.0176 98.8449 60.0176C98.1338 60.0176 97.5649 60.1598 96.8538 60.4442C95.716 61.0131 94.7204 61.8665 94.1515 63.1465C93.8671 63.7154 93.7249 64.4265 93.7249 65.1376C93.7249 65.8487 93.8671 66.4176 94.1515 67.1287C94.7204 68.2665 95.5738 69.262 96.8538 69.8309C97.4226 70.1154 98.1338 70.2576 98.8449 70.2576C100.267 70.2576 101.405 69.6887 102.4 68.8354C103.254 67.982 103.823 66.702 103.823 65.2798C103.823 63.9998 103.396 63.0042 102.827 62.1509Z"/><path fill="#000" d="M95.5733 75.9468C95.2888 75.9468 95.0044 75.9468 94.7199 76.089C94.0088 76.3734 93.4399 77.2268 93.4399 78.0801C93.4399 78.9334 94.0088 79.6446 94.7199 80.0712C95.0044 80.2134 95.2888 80.2134 95.5733 80.2134C96.7111 80.2134 97.7066 79.2179 97.7066 78.0801C97.7066 76.9423 96.8533 75.9468 95.5733 75.9468Z"/><path fill="#000" d="M52.1956 56.462C53.3738 56.462 54.3289 55.5069 54.3289 54.3286C54.3289 53.1504 53.3738 52.1953 52.1956 52.1953C51.0174 52.1953 50.0623 53.1504 50.0623 54.3286C50.0623 55.5069 51.0174 56.462 52.1956 56.462Z"/><path fill="#000" d="M101.547 55.751C101.974 55.751 102.258 55.6087 102.543 55.4665C101.689 54.471 100.694 53.6176 99.6983 52.6221C99.556 52.9065 99.4138 53.191 99.4138 53.6176C99.4138 54.1865 99.6983 54.7554 99.9827 55.1821C100.552 55.6087 100.978 55.751 101.547 55.751Z"/><path fill="#000" d="M83.6268 108.942C84.0981 108.942 84.4801 108.56 84.4801 108.089C84.4801 107.617 84.0981 107.235 83.6268 107.235C83.1555 107.235 82.7734 107.617 82.7734 108.089C82.7734 108.56 83.1555 108.942 83.6268 108.942Z"/><path fill="#000" d="M66.1332 71.3956C65.7066 71.8222 65.4221 72.2489 65.4221 72.8178C65.4221 73.3867 65.7066 73.8133 66.1332 74.24C66.5599 74.6667 67.271 74.8089 67.9821 74.8089C68.6932 74.8089 69.4043 74.5244 69.831 74.24C70.2577 73.8133 70.5421 73.3867 70.5421 72.8178C70.5421 72.2489 70.2577 71.8222 69.831 71.3956C69.4043 70.9689 68.6932 70.8267 67.9821 70.8267C67.271 70.8267 66.5599 71.1111 66.1332 71.3956Z"/><path fill="#000" d="M71.68 95.2891C68.5511 95.2891 65.8489 97.8491 65.8489 101.12C65.8489 104.249 68.4089 105.956 71.68 105.956C73.6711 105.956 75.3778 105.387 76.5156 104.107C77.0844 103.396 77.5111 102.4 77.5111 101.12C77.5111 99.9824 77.0844 98.8446 76.5156 97.8491C75.52 96.2846 73.6711 95.2891 71.68 95.2891Z"/><path fill="#000" d="M59.8755 99.4134C60.4444 100.125 61.4399 100.693 62.4355 100.693C62.8621 100.693 63.2888 100.551 63.7155 100.409C64.8533 99.9823 65.7066 98.8446 65.7066 97.4223C65.7066 96.569 65.2799 95.7157 64.711 95.1468C64.4266 94.8623 64.1421 94.5779 63.7155 94.4357C63.2888 94.2934 62.8621 94.1512 62.4355 94.1512C61.1555 94.1512 60.0177 95.0045 59.4488 96.1423C59.3066 95.7157 59.0221 95.1468 58.7377 94.7201C58.4532 94.2934 58.0266 93.8668 57.5999 93.5823C61.7244 92.8712 64.8533 89.1734 64.8533 84.9068C64.8533 80.0712 60.871 76.089 56.0355 76.089C55.4666 76.089 55.0399 76.089 54.6132 76.2312C54.1866 76.3734 53.6177 76.3734 53.191 76.6579C54.1866 75.6623 54.8977 74.5245 55.1821 73.1023C55.3244 72.6756 55.3244 72.1067 55.3244 71.6801C55.3244 71.3956 55.3244 70.969 55.1821 70.6845C55.751 70.1156 56.3199 69.4045 56.6044 68.6934C56.8888 67.9823 57.1732 67.129 57.1732 66.1334C57.1732 62.5778 54.3288 59.7334 50.7732 59.7334C50.3466 59.7334 49.9199 59.7334 49.4932 59.8756C48.6399 60.0178 47.9288 60.3023 47.3599 60.729C46.6488 61.1556 46.0799 61.7245 45.6532 62.2934C45.3688 62.7201 45.0843 63.1467 44.7999 63.7156C44.6577 64.2845 44.5155 64.7112 44.3732 65.2801C45.6532 65.4223 46.791 66.5601 46.791 67.9823C46.791 69.4045 45.511 70.6845 44.0888 70.6845C42.951 70.6845 41.9555 69.9734 41.5288 68.9779C41.2443 69.8312 40.9599 70.6845 40.9599 71.6801C40.9599 73.1023 41.3866 74.3823 42.0977 75.5201C41.5288 76.089 40.8177 76.089 40.2488 75.6623C39.8221 75.3779 39.3954 74.9512 39.111 74.5245C38.9688 74.2401 38.8266 74.0979 38.5421 73.8134C38.2577 73.3868 37.9732 72.8179 37.831 72.5334C37.4043 71.6801 37.2621 70.6845 37.1199 70.2579C36.1243 73.529 35.4132 76.9423 35.271 80.6401C35.271 81.209 35.271 81.7779 35.271 82.2045C35.271 82.6312 35.271 83.2001 35.271 83.6268C36.8354 83.2001 38.6843 84.4801 39.3954 86.7557C40.1066 89.0312 39.3954 91.1645 37.6888 91.7334C37.2621 91.8757 36.8354 91.8757 36.2666 91.7334C36.2666 91.8757 36.4088 92.0179 36.4088 92.3023C37.2621 95.5734 38.6843 98.7023 40.2488 101.689C40.2488 101.405 40.391 101.262 40.5332 101.12C41.1021 100.693 42.0977 100.978 42.6666 101.689C43.2355 102.4 43.2355 103.396 42.6666 103.822C42.951 103.965 43.2355 104.249 43.6621 104.391C44.6577 104.96 45.6532 105.245 46.791 105.387C47.3599 105.529 47.7866 105.387 48.2132 105.387C47.5021 105.387 47.2177 105.956 47.2177 106.667C47.2177 107.662 48.071 108.516 49.0666 108.516C50.0621 108.516 50.9155 107.662 50.9155 106.667C50.9155 105.813 50.3466 105.245 49.6355 104.96C50.0621 104.818 50.3466 104.818 50.7732 104.676C51.1999 104.818 51.6266 104.96 52.0532 105.102C52.4799 105.245 52.9066 105.245 53.3332 105.245C56.7466 105.102 59.4488 102.685 59.8755 99.4134ZM48.9243 95.7157C47.9288 95.7157 47.2177 95.0045 47.2177 94.009C47.2177 93.0134 47.9288 92.3023 48.9243 92.3023C49.9199 92.3023 50.631 93.0134 50.631 94.009C50.631 95.0045 49.7777 95.7157 48.9243 95.7157ZM54.471 89.8845C53.0488 89.8845 51.911 88.7468 51.911 87.3245C51.911 87.1823 51.911 86.8979 52.0532 86.7557C51.6266 87.0401 51.1999 87.3245 50.631 87.4668C48.6399 88.0357 46.6488 87.0401 46.0799 85.3334C45.7955 84.4801 45.9377 83.4845 46.3643 82.7734C46.0799 82.7734 45.7955 82.7734 45.511 82.7734C44.9421 81.3512 43.8043 80.0712 42.5243 79.2179L44.7999 77.7956C45.2266 78.0801 45.7955 78.2223 46.3643 78.3645C46.9332 78.5068 47.5021 78.5068 48.071 78.5068C48.7821 78.5068 49.4932 78.3645 50.0621 78.2223C49.2088 79.0756 48.4977 80.0712 48.071 81.209C48.3555 81.0668 48.4977 80.9245 48.7821 80.7823C50.7732 80.2134 52.7643 81.209 53.3332 82.9156C53.6177 83.6268 53.4755 84.3379 53.191 85.049C53.6177 84.7645 54.0444 84.6223 54.471 84.6223C55.8932 84.6223 57.031 85.7601 57.031 87.1823C56.8888 88.7468 55.8932 89.8845 54.471 89.8845Z"/><path fill="#000" d="M64.711 110.08C64.711 108.8 63.9999 107.662 62.8621 107.235C62.4355 107.093 62.151 106.951 61.7243 106.951C60.0177 106.951 58.311 108.373 58.5955 110.08C58.7377 111.217 60.4443 111.502 61.7243 112.64C61.8666 112.782 62.0088 112.924 62.2932 112.924C62.4355 112.924 62.5777 112.924 62.8621 112.924C63.0043 112.924 63.1466 112.782 63.431 112.782C63.5732 112.64 63.7155 112.64 63.8577 112.497C64.2843 111.786 64.711 110.933 64.711 110.08Z"/><path fill="#000" d="M68.267 118.898C67.6981 118.329 66.987 117.902 66.1336 117.902C65.707 117.902 65.2803 117.902 64.8536 118.045C64.427 118.187 64.1425 118.329 63.8581 118.613C63.5736 118.898 63.2892 119.182 63.147 119.467C64.9959 120.036 66.987 120.462 68.9781 120.747C68.9781 120.462 68.9781 120.32 68.8359 120.036C68.8359 119.609 68.5514 119.325 68.267 118.898Z"/></svg>