<svg xmlns="http://www.w3.org/2000/svg" width="128" height="65" fill="none" viewBox="0 0 128 65"><path fill="#000" d="M128 36.8588C128 29.6005 102.721 26.2844 94.4646 25.397C91.1951 10.6559 77.9818 0 62.8693 0C60.6607 0 58.4343 0.229812 56.2526 0.682083C43.6337 3.30011 33.8204 13.0858 31.1405 25.6679C3.05068 28.9876 0 34.5932 0 36.8588C0 42.3921 15.0922 46.4092 34.6551 48.4095C40.4004 58.536 51.163 64.8187 62.805 64.8187C65.0136 64.8187 67.2388 64.5895 69.4205 64.1373C78.4371 62.2657 86.2354 56.6252 90.8605 48.6504C111.616 46.7432 128 42.6244 128 36.8588ZM31.1099 38.9927C31.5297 41.0139 32.1615 43.0056 32.9692 44.9335C16.2211 43.0019 6.15101 39.6258 6.15101 36.3986C6.15101 32.6419 19.1976 29.6446 30.7183 28.1615C30.2403 31.7699 30.3665 35.4101 31.1099 38.9927ZM94.9156 27.8759C114.773 30.1581 121.849 33.8823 121.849 36.3992C121.849 39.779 110.803 43.3224 92.607 45.1983C94.9732 39.711 95.7601 33.7806 94.9156 27.8759ZM56.502 1.88262C58.6022 1.44629 60.7446 1.22567 62.8699 1.22567C77.5516 1.22567 90.3757 11.6763 93.3639 26.0748C94.7183 32.6015 93.9835 39.2317 91.2392 45.273C82.9004 46.0832 73.4909 46.511 64 46.511C53.5328 46.511 43.282 45.9962 34.3278 45.0224C33.4325 42.9939 32.7541 40.8839 32.3098 38.7439C31.5756 35.206 31.4592 31.6105 31.9629 28.05L32.0101 28.0445L32.0781 27.5781C32.1413 27.1461 32.2173 26.7183 32.2975 26.2912L32.3784 25.7175C35.0197 13.7109 44.4286 4.38727 56.502 1.88262ZM69.1717 62.9367C67.0721 63.3725 64.9303 63.5931 62.805 63.5931C51.9241 63.5931 41.8393 57.8901 36.2043 48.632C44.8937 49.4611 54.2376 49.8816 64 49.8816C72.8021 49.8816 81.3113 49.5365 89.3143 48.8551C84.8143 56.0969 77.5357 61.2012 69.1717 62.9367ZM91.534 47.4823L91.5665 47.4253L90.3984 47.5301C82.0859 48.2772 73.2048 48.6559 64 48.6559C53.83 48.6559 44.1179 48.1981 35.1331 47.2954L33.9644 47.1783L33.9969 47.2366C13.5828 45.0818 1.14355 40.8711 1.14355 36.8588C1.14355 32.933 12.807 29.0225 30.9352 26.8439L30.9272 26.8966L30.945 26.8942C30.9432 26.9077 30.9407 26.9218 30.9383 26.9346L30.8923 26.9401L30.885 26.9867C8.38846 29.8186 5.00746 34.0925 5.00746 36.3986C5.00746 40.8986 17.1557 44.2453 33.4631 46.085L33.4993 46.1641L33.8455 46.2021C42.9253 47.2065 53.3526 47.7366 64 47.7366C73.6638 47.7366 83.2448 47.2942 91.7086 46.4583L92.0561 46.4239L92.0923 46.3467C109.615 44.5732 122.993 41.1211 122.993 36.3992C122.993 30.5939 103.651 27.7203 94.8384 26.7134C94.831 26.6705 94.8237 26.6276 94.8157 26.5853C114.309 28.7149 126.856 32.7284 126.856 36.8588C126.856 41.0304 113.408 45.4158 91.534 47.4823Z"/><path fill="#000" d="M95.7141 21.691C96.9815 21.691 98.0123 20.6596 98.0123 19.3929C98.0123 18.1261 96.9815 17.0947 95.7141 17.0947C94.4468 17.0947 93.416 18.1261 93.416 19.3929C93.416 20.6596 94.4468 21.691 95.7141 21.691ZM95.7141 18.3204C96.3055 18.3204 96.7866 18.8015 96.7866 19.3929C96.7866 19.9842 96.3055 20.4653 95.7141 20.4653C95.1228 20.4653 94.6417 19.9842 94.6417 19.3929C94.6417 18.8015 95.1228 18.3204 95.7141 18.3204Z"/><path fill="#000" d="M32.4391 50.4941C31.0872 50.4941 29.9878 51.5936 29.9878 52.9455C29.9878 54.2974 31.0872 55.3968 32.4391 55.3968C33.791 55.3968 34.8905 54.2974 34.8905 52.9455C34.8905 51.5936 33.791 50.4941 32.4391 50.4941ZM32.4391 54.1711C31.7632 54.1711 31.2135 53.6214 31.2135 52.9455C31.2135 52.2695 31.7632 51.7198 32.4391 51.7198C33.1151 51.7198 33.6648 52.2695 33.6648 52.9455C33.6648 53.6214 33.1151 54.1711 32.4391 54.1711Z"/><path fill="#000" d="M100.617 43.4468C101.547 43.4468 102.302 42.6911 102.302 41.7615C102.302 40.8318 101.547 40.0762 100.617 40.0762C99.6873 40.0762 98.9316 40.8318 98.9316 41.7615C98.9316 42.6911 99.6873 43.4468 100.617 43.4468ZM100.617 41.3018C100.871 41.3018 101.077 41.5084 101.077 41.7615C101.077 42.0146 100.871 42.2211 100.617 42.2211C100.363 42.2211 100.157 42.0146 100.157 41.7615C100.157 41.5084 100.363 41.3018 100.617 41.3018Z"/></svg>