<svg xmlns="http://www.w3.org/2000/svg" width="128" height="94" fill="none" viewBox="0 0 128 94"><path fill="#000" d="M81.278 12.3037C59.2598 12.3037 41.3506 30.2202 41.3506 52.2311C41.3506 74.242 59.2598 92.1585 81.278 92.1585C103.296 92.1585 121.205 74.242 121.205 52.2311C121.205 30.2202 103.296 12.3037 81.278 12.3037ZM81.278 77.6395C67.2671 77.6395 55.8696 66.242 55.8696 52.2311C55.8696 38.2202 67.2671 26.8228 81.278 26.8228C95.2889 26.8228 106.686 38.2202 106.686 52.2311C106.686 66.242 95.2889 77.6395 81.278 77.6395Z"/><path fill="#000" d="M123.702 93.8877C126.076 93.8877 128 91.9637 128 89.5901C128 87.2166 126.076 85.2925 123.702 85.2925C121.329 85.2925 119.405 87.2166 119.405 89.5901C119.405 91.9637 121.329 93.8877 123.702 93.8877Z"/><path fill="#000" d="M45.6992 7.50633C47.772 7.50633 49.4524 5.82599 49.4524 3.75316C49.4524 1.68034 47.772 0 45.6992 0C43.6264 0 41.946 1.68034 41.946 3.75316C41.946 5.82599 43.6264 7.50633 45.6992 7.50633Z"/><path fill="#000" d="M3.21598 77.4749C4.99211 77.4749 6.43195 76.035 6.43195 74.2589C6.43195 72.4828 4.99211 71.043 3.21598 71.043C1.43985 71.043 0 72.4828 0 74.2589C0 76.035 1.43985 77.4749 3.21598 77.4749Z"/></svg>