<svg xmlns="http://www.w3.org/2000/svg" width="128" height="107" fill="none" viewBox="0 0 128 107"><path fill="#000" d="M127.631 0.546693C127.329 0.183269 126.86 0 126.236 0C120.293 0 96.2424 17.7554 88.3375 23.7167C81.0597 16.8085 71.4205 12.9093 61.2409 12.9093C52.0755 12.9093 43.1408 16.1427 36.0818 22.013C20.5674 34.9161 17.5086 57.3081 28.2947 73.808C19.1904 82.2147 11.7798 89.5667 6.85332 95.1197C-0.413901 103.309 -0.448187 105.398 0.332893 106.338C0.635227 106.701 1.10462 106.807 1.72861 106.807C1.72861 106.807 1.72861 106.807 1.72924 106.807C5.76056 106.807 19.8063 97.9666 38.2106 84.2008C44.8538 89.0063 52.8822 91.6681 61.2821 91.6681C70.4474 91.6681 79.3828 88.4347 86.4412 82.5644C100.479 70.8894 104.313 51.4466 96.9275 35.6267C102.712 30.3649 107.972 25.3867 112.494 20.8672C129.99 3.38177 128.276 1.32216 127.631 0.546693ZM36.8791 22.9705C43.7143 17.286 52.366 14.1554 61.2403 14.1554C71.193 14.1554 80.6227 17.991 87.6935 24.8013L87.7066 24.8144C88.0769 25.1716 88.4341 25.545 88.7913 25.9184L89.1441 26.2868L89.1497 26.2831C89.6397 26.8092 90.1166 27.349 90.5791 27.9057C91.627 29.1655 92.5689 30.4777 93.426 31.8254C86.6887 38.3446 77.5563 46.5699 66.1337 56.0694C53.9269 66.2216 43.2586 74.3653 35.1312 80.0373C34.011 78.9845 32.94 77.8692 31.9439 76.6711C31.515 76.1556 31.1036 75.632 30.7065 75.1009L30.7102 75.0959L30.3954 74.662C30.133 74.3011 29.8706 73.9383 29.6225 73.5711L29.5427 73.4514C18.8444 57.4446 21.7543 35.5494 36.8791 22.9705ZM90.1671 25.5649C98.8861 19.4173 105.197 15.755 107.096 15.755C107.176 15.755 107.227 15.7631 107.256 15.77C107.496 16.9818 103.089 22.3995 94.3368 30.9421C93.489 29.6256 92.5633 28.342 91.5372 27.1078C91.0959 26.5767 90.6352 26.0674 90.1671 25.5649ZM34.0839 80.7642C26.2033 86.2037 20.8916 89.1659 19.1692 89.1665C19.0919 89.1665 19.042 89.1591 19.0127 89.1522C18.9915 88.833 19.3275 86.5098 29.8506 76.0216C30.2165 76.5103 30.5905 76.9953 30.9851 77.4697C31.957 78.6372 32.998 79.7294 34.0839 80.7642ZM85.6445 81.6063C78.8093 87.2915 70.1576 90.422 61.2827 90.422C53.2811 90.422 45.6293 87.9267 39.2579 83.4154C48.4276 76.5259 58.629 68.4601 69.1951 59.6719C78.7788 51.7015 87.8731 43.8346 95.9663 36.5032C102.9 51.757 99.1348 70.387 85.6445 81.6063ZM111.614 19.9858C100.605 30.9895 85.2574 44.7709 68.3984 58.7917C36.7575 85.1072 7.47295 105.719 1.72924 105.718C1.4668 105.718 1.32966 105.666 1.29226 105.62C0.614656 104.806 4.3025 97.6886 29.0041 74.8677C29.0365 74.9132 29.0695 74.9594 29.1032 75.0055C16.2456 87.797 17.5036 89.3105 18.0434 89.9601C18.2934 90.2599 18.6724 90.4127 19.1704 90.4127C23.587 90.412 43.6738 76.3719 66.9323 57.0282C78.8623 47.1067 89.7257 37.351 97.5228 29.5582C109.995 17.0915 108.753 15.5985 108.224 14.9608C107.974 14.6604 107.595 14.5083 107.097 14.5083C104.269 14.5083 95.9557 19.9484 89.3018 24.648C89.2838 24.6293 89.2651 24.6099 89.2476 24.5912C108.364 10.179 122.512 1.24611 126.237 1.24611C126.499 1.24611 126.637 1.29847 126.674 1.34336C126.739 1.42377 128.113 3.49398 111.614 19.9858Z"/><path fill="#000" d="M17.4207 80.6252C18.5091 80.6252 19.3949 79.74 19.3949 78.651C19.3949 77.5619 18.5098 76.6768 17.4207 76.6768C16.3317 76.6768 15.4465 77.5626 15.4465 78.651C15.4465 79.7394 16.3323 80.6252 17.4207 80.6252ZM17.4207 77.9241C17.8216 77.9241 18.1482 78.2501 18.1482 78.6516C18.1482 79.0524 17.8222 79.3791 17.4207 79.3791C17.0193 79.3791 16.6933 79.053 16.6933 78.6516C16.6933 78.2501 17.0193 77.9241 17.4207 77.9241Z"/><path fill="#000" d="M104.796 34.4961C103.192 34.4961 101.887 35.8008 101.887 37.4054C101.887 39.0099 103.192 40.3146 104.796 40.3146C106.401 40.3146 107.705 39.0099 107.705 37.4054C107.705 35.8008 106.4 34.4961 104.796 34.4961ZM104.796 39.0673C103.88 39.0673 103.134 38.3217 103.134 37.4047C103.134 36.4878 103.879 35.7428 104.796 35.7428C105.713 35.7428 106.459 36.4884 106.459 37.4054C106.459 38.3223 105.713 39.0673 104.796 39.0673Z"/><path fill="#000" d="M75.7056 11.8472C76.9654 11.8472 77.9915 10.8217 77.9915 9.56128C77.9915 8.30145 76.966 7.27539 75.7056 7.27539C74.4451 7.27539 73.4197 8.30083 73.4197 9.56128C73.4197 10.8217 74.4451 11.8472 75.7056 11.8472ZM75.7056 8.52213C76.2784 8.52213 76.7447 8.98841 76.7447 9.56128C76.7447 10.1342 76.2784 10.6004 75.7056 10.6004C75.1327 10.6004 74.6664 10.1342 74.6664 9.56128C74.6664 8.98841 75.1327 8.52213 75.7056 8.52213Z"/></svg>