<svg xmlns="http://www.w3.org/2000/svg" width="128" height="128" fill="none" viewBox="0 0 128 128"><path fill="#000" d="M42.9568 0.350324C53.2492 -0.71562 63.7132 0.69607 73.5231 3.97088C80.1291 6.23454 86.5188 9.20144 92.4209 12.9916C94.7159 14.4333 96.9162 16.0264 99.0768 17.669C99.8064 17.0466 100.702 16.5743 101.674 16.59C103.388 16.5104 105.03 17.8334 105.368 19.5438C105.615 20.5876 105.345 21.6705 104.82 22.5773C109.744 27.1372 114.127 32.3143 117.776 37.9872C121.56 43.8883 124.527 50.361 126.275 57.1937C128.125 64.594 128.641 72.4261 127.061 79.9308C125.92 85.4836 123.678 90.8094 120.448 95.4372C117.847 99.1935 114.624 102.493 110.987 105.212C103.805 110.624 95.1165 113.728 86.291 114.826C85.9646 114.856 85.6446 114.906 85.3361 115.003C84.7473 118.585 82.8401 121.916 80.1227 124.256C77.7803 126.29 74.8299 127.584 71.7695 127.907C68.4901 128.271 65.093 127.558 62.254 125.841C57.559 123.084 54.4921 117.671 54.6035 112.139C54.5561 111.856 54.7392 111.366 54.3564 111.283C41.9763 107.17 30.5575 100.104 21.2212 90.8564C16.0194 85.6859 11.4715 79.8095 7.90291 73.3551C2.76374 64.0799 -0.388883 53.461 0.0386347 42.7467C0.302313 35.5826 2.26966 28.4576 5.93044 22.3203C7.68148 19.4695 9.66419 16.7492 12.0194 14.3837C12.2306 14.2206 12.0578 13.9532 12.0155 13.7536C11.2744 11.7548 11.6175 9.38671 12.8962 7.6919C13.54 6.86602 14.3502 6.15757 15.3077 5.73745C17.3966 4.74718 20.0168 5.07596 21.8024 6.56333C21.9508 6.75382 22.1736 6.71076 22.3476 6.58681C28.7041 3.09281 35.7927 1.09922 42.9568 0.350324ZM44.6733 2.35435C37.3453 3.15544 30.1095 5.36691 23.7761 9.25494C24.0091 10.1526 24.2318 11.075 24.1409 12.0131C23.9937 14.4842 22.3028 16.7635 20.004 17.5646C18.2286 18.2352 16.2139 17.9638 14.5858 17.0192C12.8667 18.9619 11.3653 21.099 10.0763 23.3575C6.79316 29.0891 5.07669 35.6935 4.90517 42.3149C4.71701 49.2311 6.1314 56.1356 8.62867 62.5508C11.7237 70.4795 16.42 77.7115 22.1006 83.9623C31.2782 94.0177 42.9747 101.683 55.7695 105.998C55.9884 105.707 56.11 105.358 56.2713 105.035C57.7523 102.059 60.1791 99.5731 63.1167 98.091C65.4361 96.8802 68.069 96.3127 70.67 96.4223C74.5394 96.5266 78.3333 98.2267 81.0545 101.029C83.3201 103.312 84.8472 106.334 85.372 109.536C86.7313 109.512 88.0727 109.207 89.4116 108.988C98.8925 107.253 108.079 102.814 114.706 95.5794C118.657 91.3131 121.629 86.1099 123.302 80.4944C125.524 73.1763 125.525 65.2829 123.902 57.8408C122.342 50.635 119.31 43.81 115.33 37.6636C111.998 32.5452 108.062 27.8131 103.59 23.6941C102.221 24.4678 100.367 24.3073 99.2228 23.1853C98.2167 22.2811 97.7956 20.7924 98.1271 19.4734C98.1412 19.2855 98.2884 19.0141 98.0644 18.898C90.7377 13.1638 82.4638 8.69391 73.6869 5.75963C64.3775 2.64399 54.4384 1.29102 44.6733 2.35435Z"/><path fill="#000" d="M42.2913 17.8801C47.529 14.8676 53.6077 13.6229 59.5827 13.6529C67.3651 13.6711 75.022 15.8996 81.9596 19.4105C88.0498 22.5666 93.5998 26.8408 98.1297 32.061C102.47 37.058 105.925 42.9605 107.598 49.4475C109.194 55.6526 109.058 62.4802 106.352 68.3539C107.416 69.9587 107.691 72.0919 106.951 73.8911C106.167 75.9199 104.155 77.3721 102.017 77.4464C101.19 77.5051 100.375 77.3107 99.5928 77.0537C97.1812 78.9755 94.4766 80.5086 91.6005 81.5745C83.5788 84.531 74.6674 84.2753 66.528 81.9385C59.9744 80.1472 53.7933 77.025 48.3495 72.91C43.0426 68.8836 38.4065 63.8801 35.012 58.0781C32.3406 53.5103 30.4385 48.418 29.8728 43.1118C29.3506 38.3235 29.9701 33.3383 32.0488 28.9832C34.1416 24.2588 37.8779 20.3969 42.2913 17.8801ZM57.481 16.0392C51.6775 16.5415 45.8599 18.539 41.3915 22.4348C37.5489 25.7344 34.9428 30.464 34.116 35.5093C33.252 40.4985 34.0507 45.6716 35.8248 50.366C37.38 54.4706 39.6673 58.2686 42.4193 61.6504C46.4333 66.5704 51.4151 70.6502 56.9344 73.6954C63.4329 77.2507 70.7123 79.4596 78.1106 79.607C84.6066 79.7244 91.3278 78.1444 96.6206 74.169C96.0587 72.8617 95.9128 71.3587 96.3505 69.9926C96.8625 68.26 98.2424 66.8248 99.9281 66.2586C100.994 65.8737 102.155 65.8972 103.251 66.1464L103.384 66.0746C105.559 61.6164 106.1 56.4485 105.325 51.5624C104.313 45.0519 101.202 39.032 97.1172 33.9802C92.6232 28.4378 86.9067 23.9561 80.5695 20.8092C73.4348 17.2878 65.4233 15.3555 57.481 16.0392Z"/><path fill="#000" d="M63.6007 27.6422C67.3664 27.0746 71.2589 27.6083 74.8019 29.0004C80.43 31.0436 85.4156 35.0568 88.4774 40.3096C90.2246 43.3547 91.2959 46.9505 90.8287 50.5006C90.5625 53.5445 88.9612 56.4135 86.6086 58.2897C84.5721 59.9402 82.0569 60.8965 79.4995 61.2775C76.0819 61.7628 72.5632 61.3466 69.3082 60.1998C66.354 59.2604 63.5866 57.7456 61.1367 55.8225C61.0548 55.7729 60.8884 55.6764 60.8039 55.6281C59.218 56.3431 57.3902 56.5349 55.7198 56.0169C53.4708 55.3619 51.6225 53.4779 50.9582 51.1947C50.1992 48.6688 50.916 45.7476 52.8116 43.934C52.3726 42.0618 52.1384 40.1165 52.4161 38.1999C52.7745 35.8279 53.723 33.4977 55.3908 31.769C57.5258 29.4348 60.5453 28.1171 63.6007 27.6422ZM63.7799 30.4525C61.2852 31.1114 58.9172 32.5661 57.4823 34.7907C56.0769 36.8886 55.6673 39.5463 56.0065 42.0318C56.5646 42.037 57.1137 41.887 57.6756 41.9013C59.291 41.8752 60.9076 42.4441 62.1658 43.4774C63.8631 44.8525 64.8922 47.0666 64.7847 49.2833C64.8077 50.8085 64.2177 52.2698 63.3729 53.5053C66.3885 55.846 70.0007 57.4142 73.7626 57.9322C77.0061 58.368 80.4736 57.9322 83.2908 56.1461C85.5129 54.7631 87.1667 52.429 87.6403 49.8052C88.1791 47.0262 87.5519 44.1297 86.3167 41.6299C83.8361 36.7034 79.3075 33.0137 74.231 31.1649C70.9056 29.9698 67.2256 29.5379 63.7799 30.4525Z"/></svg>