<svg xmlns="http://www.w3.org/2000/svg" width="128" height="128" fill="none" viewBox="0 0 128 128"><path fill="#000" d="M118.501 30.4371C120.533 28.8624 121.727 26.4512 121.727 23.8577C121.727 19.2623 117.988 15.5239 113.393 15.5239C111.389 15.5239 109.495 16.2267 107.988 17.5159C96.0516 6.21491 80.4593 0 64.0006 0C51.0726 0 38.6341 3.83169 27.9942 11.0871C26.7031 10.2481 25.216 9.80779 23.6637 9.80779C21.3837 9.80779 19.2095 10.7873 17.6882 12.4982C15.5252 14.262 14.2863 16.8648 14.2863 19.6498C14.2863 20.7854 14.4928 21.8937 14.9001 22.9528C5.28887 34.4404 0 48.9997 0 64C0 73.1461 1.88879 81.9724 5.616 90.2466C4.79817 90.922 4.07176 91.672 3.45232 92.4818C-1.16114 98.5188 -0.00310971 107.184 6.03331 111.798C8.4551 113.648 11.3415 114.627 14.3814 114.627C17.0918 114.627 19.7866 113.81 22.0349 112.317C33.6742 122.435 48.5545 128.001 64 128.001C99.29 128.001 128 99.2906 128 64.0006C128.001 52.1019 124.718 40.5123 118.501 30.4371ZM117.127 28.3095C115.338 25.652 113.339 23.1145 111.173 20.7525C112.004 20.1212 113.012 19.781 114.073 19.781C116.728 19.781 118.887 21.941 118.887 24.5953C118.887 26.0556 118.24 27.4008 117.127 28.3095ZM18.6877 13.5406C20.077 12.4398 21.7451 11.8589 23.5163 11.8589C24.4324 11.8589 25.346 12.0268 26.2086 12.3484C23.0797 14.642 20.1548 17.2218 17.4904 20.0391C17.2336 19.3264 17.0999 18.5714 17.0999 17.8107C17.0999 16.2466 17.6633 14.7328 18.6877 13.5406ZM83.8867 123.321C83.3873 121.654 81.8449 120.44 80.0152 120.44C77.7819 120.44 75.9727 122.249 75.9727 124.482C75.9727 124.794 76.0113 125.096 76.0784 125.387C72.169 126.155 68.1321 126.562 64.0006 126.562C48.718 126.562 34.002 120.988 22.5635 110.867L22.1306 110.484L21.6636 110.824C19.5702 112.349 16.9848 113.189 14.3827 113.189C11.6611 113.189 9.0764 112.313 6.90774 110.656C1.50133 106.523 0.463957 98.7626 4.59604 93.3562C5.24844 92.5023 6.03642 91.7211 6.94008 91.0339L7.39906 90.6844L7.15713 90.1601C3.36214 81.9289 1.43852 73.1268 1.43852 64.0006C1.43852 49.1938 6.70935 34.8279 16.2802 23.548L16.5719 23.2041L16.3896 22.7924C15.9481 21.7929 15.7248 20.7357 15.7248 19.6504C15.7248 19.4333 15.7341 19.2175 15.7515 19.0036C15.8927 19.9352 16.1968 20.8395 16.6521 21.6661L17.136 22.5448L17.8126 21.8048C20.88 18.4488 24.3211 15.4201 28.0408 12.8024L28.4015 12.5523C38.8897 5.28202 51.1995 1.43852 64 1.43852C80.3107 1.43852 95.7525 7.68266 107.48 19.021L107.991 19.5154L108.491 19.0104C109.797 17.6895 111.458 16.9624 113.313 16.9624C117.115 16.9624 120.129 20.0559 120.129 23.8584C120.129 23.8776 120.129 23.8969 120.129 23.9162C120.129 20.7873 117.211 18.3431 113.993 18.3431C112.314 18.3431 110.776 19.0011 109.593 20.1946L109.124 20.6872L109.609 21.1928C112.084 23.8285 114.348 26.6974 116.331 29.7175L116.921 30.6287C123.227 40.6075 126.561 52.1473 126.561 64.0006C126.561 91.5482 108.664 114.993 83.8867 123.321Z"/><path fill="#000" d="M7.87238 91.655L7.42646 90.752L6.71684 91.4665C6.30388 91.882 5.978 92.2508 5.69129 92.6258C1.70225 97.8457 2.70355 105.337 7.92276 109.327C10.0124 110.924 12.5045 111.768 15.1303 111.768C17.0433 111.768 18.952 111.303 20.648 110.422L21.5417 109.959L20.8134 109.264C15.4817 104.176 11.1275 98.2505 7.87238 91.655ZM15.1303 110.33C12.8229 110.33 10.6331 109.588 8.79595 108.184C4.20675 104.676 3.32672 98.0894 6.83439 93.4996C6.90342 93.4088 6.97681 93.3174 7.05331 93.226C10.1679 99.2867 14.2024 104.776 19.0633 109.569C17.8164 110.068 16.4749 110.33 15.1303 110.33Z"/><path fill="#000" d="M98.5175 82.1912C99.9772 82.1912 101.161 81.0078 101.161 79.548C101.161 78.0882 99.9772 76.9048 98.5175 76.9048C97.0577 76.9048 95.8743 78.0882 95.8743 79.548C95.8743 81.0078 97.0577 82.1912 98.5175 82.1912Z"/><path fill="#000" d="M24.0418 45.8087C26.2744 45.8087 28.0843 43.9988 28.0843 41.7662C28.0843 39.5335 26.2744 37.7236 24.0418 37.7236C21.8092 37.7236 19.9993 39.5335 19.9993 41.7662C19.9993 43.9988 21.8092 45.8087 24.0418 45.8087Z"/></svg>