<svg xmlns="http://www.w3.org/2000/svg" width="65" height="128" fill="none" viewBox="0 0 65 128"><path fill="#000" d="M64.1857 57.7737C61.2693 43.719 49.3226 33.1983 35.0551 32.0458C29.8 13.9308 23.9959 0 19.8086 0C19.67 0 19.532 0.0141067 19.3983 0.0417071C14.0212 1.15737 16.385 24.8047 17.7288 35.4315C5.02037 41.9096 -2.35382 56.3311 0.679761 70.9513C3.66428 85.3335 15.8925 95.875 30.4998 96.7349C33.1967 105.928 35.9389 113.641 38.4377 119.057C41.2142 125.074 43.5351 128 45.5328 128C45.6714 128 45.8088 127.986 45.9425 127.958C50.1378 127.088 50.058 112.048 47.6605 92.9874C60.318 86.2609 67.1064 71.848 64.1857 57.7737ZM20.771 9.67668C20.8108 9.66871 20.8526 9.66442 20.8949 9.66442C23.1698 9.66442 27.2656 17.9543 31.621 31.8864C29.684 31.9428 27.7441 32.1814 25.8433 32.5764C23.6899 33.0235 21.6315 33.6779 19.6823 34.5115C17.6485 15.5445 19.3953 9.96189 20.771 9.67668ZM1.88068 70.7023C-1.61536 53.8556 9.2463 37.3059 26.0929 33.8098C28.0372 33.4062 30.0232 33.1873 32.0037 33.1578C34.3001 40.6492 36.5216 49.2458 38.4996 58.2613C38.5487 58.4858 38.5984 58.709 38.6474 58.9353C38.9118 60.1498 39.1724 61.3703 39.427 62.5982C39.6791 63.812 39.9219 65.0215 40.1599 66.2273C40.2163 66.5132 40.2728 66.7984 40.328 67.0836C40.8094 69.548 41.2621 71.9903 41.6828 74.3952C41.7104 74.5528 41.738 74.7105 41.765 74.8681C42.2011 77.3834 42.6047 79.8595 42.9684 82.2779C42.9745 82.319 42.9807 82.3595 42.9868 82.4005C43.3591 84.8778 43.6921 87.295 43.9835 89.6374C43.9878 89.6705 43.9915 89.703 43.9958 89.7355C44.1405 90.9051 44.276 92.0564 44.3993 93.1861C42.5906 93.9344 40.6997 94.5159 38.7713 94.9158C36.4627 95.3942 34.1093 95.6082 31.6891 95.5549L31.556 95.553C31.4548 95.5518 31.3542 95.5481 31.2536 95.5457C31.1671 95.5438 31.08 95.5432 30.9941 95.5389L30.9757 95.5383C16.7432 94.8839 4.77995 84.6736 1.88068 70.7023ZM45.1623 101.92C45.8879 113.786 44.6502 118.306 43.3695 118.572C43.3297 118.58 43.288 118.585 43.2456 118.585C41.5191 118.585 37.725 112.85 32.6643 96.7834C34.8079 96.7681 36.946 96.546 39.0228 96.1155C40.9088 95.7241 42.7556 95.1556 44.5343 94.4429C44.806 97.0717 45.0194 99.5784 45.1623 101.92ZM45.6941 126.757C45.6414 126.768 45.5886 126.773 45.5334 126.773C43.6615 126.773 40.1986 121.365 35.9481 109.595C39.5791 118.215 41.973 119.811 43.2456 119.811C43.2456 119.811 43.2456 119.811 43.2463 119.811C43.372 119.811 43.4977 119.798 43.6185 119.773C46.9478 119.083 47.2238 108.295 45.707 93.9577L45.718 93.9528L45.6696 93.499C44.8618 85.9855 43.5652 77.5165 41.8932 68.7212C41.8859 68.6832 41.8791 68.6458 41.8718 68.6083C41.6669 67.5313 41.4577 66.4518 41.2412 65.3662C41.0996 64.6547 40.9566 63.9451 40.8107 63.2355C40.7487 62.9337 40.6911 62.6344 40.6285 62.332C38.3867 51.5292 35.7629 41.1429 33.0421 32.3274L32.9078 31.8618H32.8685C28.6616 18.3303 24.2069 8.43773 20.8949 8.43773C20.7691 8.43773 20.6434 8.45061 20.522 8.47576C18.8248 8.82782 17.8717 11.5167 17.6086 16.6958C17.5436 17.9733 17.5215 19.3963 17.5423 20.9499C16.7248 7.97221 17.8558 1.61493 19.6473 1.24324C19.7001 1.2322 19.7528 1.18314 19.8086 1.18314C22.7202 1.18314 28.1801 12.8489 33.7695 31.8625H33.7664L34.0093 32.7475C36.589 41.6741 39.0847 51.8739 41.2284 62.2026C41.4841 63.436 41.7338 64.6799 41.9779 65.9109C42.0306 66.1764 42.0815 66.4457 42.1336 66.7107C42.3391 67.7552 42.5415 68.8003 42.7384 69.8399C42.7721 70.0172 42.8053 70.1963 42.839 70.3729C44.3024 78.1562 45.5156 85.7629 46.3964 92.7219L46.4467 93.1187C47.0943 98.2953 47.5642 103.136 47.831 107.494C48.6688 121.196 47.2765 126.429 45.6941 126.757ZM47.501 91.6859C46.7165 85.6292 45.6843 79.1044 44.4631 72.4178C44.3411 71.7474 44.2172 71.0764 44.0914 70.4048C44.0148 69.9945 43.9381 69.5848 43.8596 69.1738C43.6633 68.1404 43.4628 67.1069 43.2591 66.0752C43.2242 65.8998 43.1898 65.725 43.1549 65.5496C42.9175 64.3554 42.6758 63.1631 42.4293 61.9751C42.1919 60.8324 41.949 59.6873 41.7012 58.541C41.6571 58.3349 41.6123 58.1288 41.5675 57.9227C41.3768 57.0469 41.1836 56.1704 40.9867 55.2945C39.2638 47.5891 37.376 40.1002 35.4329 33.3038C48.9503 34.6047 60.2106 44.6555 62.9842 58.0221C65.7632 71.4113 59.4139 85.1225 47.501 91.6859Z"/><path fill="#000" d="M53.0708 32.4751C54.3392 32.4751 55.3708 31.4434 55.3708 30.175C55.3708 28.9066 54.3392 27.875 53.0708 27.875C51.8024 27.875 50.7708 28.9066 50.7708 30.175C50.7708 31.4434 51.8024 32.4751 53.0708 32.4751ZM53.0708 29.1017C53.6627 29.1017 54.1441 29.5832 54.1441 30.175C54.1441 30.7669 53.6627 31.2484 53.0708 31.2484C52.4789 31.2484 51.9974 30.7669 51.9974 30.175C51.9974 29.5832 52.4789 29.1017 53.0708 29.1017Z"/><path fill="#000" d="M9.98348 25.7282C11.8437 25.7282 13.3569 24.2151 13.3569 22.3548C13.3569 20.4946 11.8437 18.9814 9.98348 18.9814C8.12322 18.9814 6.61011 20.4946 6.61011 22.3548C6.61011 24.2151 8.12322 25.7282 9.98348 25.7282ZM9.98348 20.2081C11.1672 20.2081 12.1302 21.1711 12.1302 22.3548C12.1302 23.5386 11.1672 24.5015 9.98348 24.5015C8.79974 24.5015 7.83679 23.5386 7.83679 22.3548C7.83679 21.1711 8.79974 20.2081 9.98348 20.2081Z"/><path fill="#000" d="M51.6907 101.476C50.169 101.476 48.9307 102.714 48.9307 104.236C48.9307 105.758 50.169 106.996 51.6907 106.996C53.2124 106.996 54.4507 105.758 54.4507 104.236C54.4507 102.714 53.2124 101.476 51.6907 101.476ZM51.6907 105.769C50.8455 105.769 50.1573 105.081 50.1573 104.236C50.1573 103.391 50.8455 102.703 51.6907 102.703C52.5359 102.703 53.2241 103.391 53.2241 104.236C53.2241 105.081 52.5359 105.769 51.6907 105.769Z"/><path fill="#000" d="M28.0772 105.77C26.3862 105.77 25.0105 107.145 25.0105 108.836C25.0105 110.527 26.3862 111.903 28.0772 111.903C29.7682 111.903 31.1439 110.527 31.1439 108.836C31.1439 107.145 29.7682 105.77 28.0772 105.77ZM28.0772 110.676C27.0627 110.676 26.2372 109.851 26.2372 108.836C26.2372 107.822 27.0627 106.996 28.0772 106.996C29.0917 106.996 29.9172 107.822 29.9172 108.836C29.9172 109.851 29.0917 110.676 28.0772 110.676Z"/><path fill="#000" d="M32.2171 50.8756C33.8234 50.8756 35.1305 49.5685 35.1305 47.9622C35.1305 46.3559 33.8234 45.0488 32.2171 45.0488C30.6107 45.0488 29.3037 46.3559 29.3037 47.9622C29.3037 49.5685 30.6107 50.8756 32.2171 50.8756ZM32.2171 46.2755C33.1475 46.2755 33.9038 47.0318 33.9038 47.9622C33.9038 48.8926 33.1475 49.6489 32.2171 49.6489C31.2866 49.6489 30.5304 48.8926 30.5304 47.9622C30.5304 47.0318 31.2866 46.2755 32.2171 46.2755Z"/></svg>