<svg xmlns="http://www.w3.org/2000/svg" width="128" height="128" fill="none" viewBox="0 0 128 128"><path fill="#000" d="M64 0C28.7093 0 0 28.711 0 64C0 99.289 28.7093 128 64 128C99.2907 128 128 99.289 128 64C128 28.711 99.2907 0 64 0ZM64 122.562C31.7076 122.562 5.43578 96.2909 5.43578 64C5.43578 31.7091 31.7076 5.43851 64 5.43851C96.2924 5.43851 122.564 31.7091 122.564 64C122.564 96.2909 96.2924 122.562 64 122.562Z"/><path fill="#000" d="M63.9998 14.9541C36.9553 14.9541 14.9526 36.9557 14.9526 63.999C14.9526 91.0423 36.9553 113.044 63.9998 113.044C91.0444 113.044 113.047 91.0423 113.047 63.999C113.047 36.9557 91.0444 14.9541 63.9998 14.9541ZM63.9998 107.608C39.9506 107.608 20.3884 88.0441 20.3884 63.999C20.3884 39.9539 39.9506 20.3896 63.9998 20.3896C88.049 20.3896 107.611 39.9539 107.611 63.999C107.611 88.0441 88.049 107.608 63.9998 107.608Z"/></svg>